<?xml version="1.0" encoding="utf-8"?>
<svg xmlns="http://www.w3.org/2000/svg" viewBox="0 0 800 1150" width="800" height="1150" xmlns:bx="https://boxy-svg.com">
  <defs>
    <filter id="shadow" x="-20%" y="-20%" width="140%" height="140%">
      <feGaussianBlur in="SourceAlpha" stdDeviation="3"/>
      <feOffset dx="2" dy="4" result="offsetblur"/>
      <feComponentTransfer>
        <feFuncA type="linear" slope="0.2"/>
      </feComponentTransfer>
      <feMerge>
        <feMergeNode/>
        <feMergeNode in="SourceGraphic"/>
      </feMerge>
    </filter>
    <marker id="arrowhead" markerWidth="10" markerHeight="7" refX="9" refY="3.5" orient="auto">
      <polygon points="0 0, 10 3.5, 0 7" fill="#64748b"/>
    </marker>
    <symbol id="logo-bigquery" viewBox="0 0 512 512">
      <path fill="#34a853" d="M311.9,418.9c-8.8,0-16-7.2-16-16v-145.8c0-8.8,7.2-16,16-16s16,7.2,16,16v145.8c0,8.8-7.2,16-16,16h0Z"/>
      <path fill="#34a853" d="M147.6,418.9c-8.8,0-16-7.2-16-16v-200.5c0-8.8,7.2-16,16-16s16,7.2,16,16v200.5c0,8.8-7.2,16-16,16Z"/>
      <path fill="#34a853" d="M229.8,437.4c-8.8,0-16-7.2-16-16V147.6c0-8.8,7.2-16,16-16s16,7.2,16,16v273.7c0,8.8-7.2,16-16,16h0Z"/>
      <path fill="#fbbc04" d="M229.8,437.4c-114.5,0-207.6-93.1-207.6-207.6h32c0,96.8,78.8,175.6,175.6,175.6s175.6-78.8,175.6-175.6h32c0,114.5-93.1,207.6-207.6,207.6h0Z"/>
      <path fill="#ea4335" d="M437.4,229.8h-32c0-96.8-78.8-175.6-175.6-175.6S54.1,132.9,54.1,229.8H22.1c0-114.5,93.2-207.7,207.7-207.7s207.6,93.1,207.6,207.6h0Z"/>
      <path fill="#4285f4" d="M487.4,464.8l-100-100c32.3-37.6,49.9-85,49.9-135.1s-21.6-107.6-60.8-146.8l-22.6,22.6c33.2,33.2,51.4,77.3,51.4,124.2s-18.3,90.9-51.5,124.1h0c-5,5-7.5,7-11.8,10.8l122.8,122.8c3.1,3.1,7.2,4.7,11.3,4.7h0c4.1,0,8.2-1.6,11.3-4.7,6.2-6.2,6.2-16.4,0-22.6h0Z"/>
    </symbol>
    <symbol id="logo-compute" viewBox="0 0 512 512">
      <path fill="#4285f4" d="M380.7,396.7h-249.3c-8.8,0-16-7.2-16-16v-249.3c0-8.8,7.2-16,16-16h249.3c8.8,0,16,7.2,16,16v249.3c0,8.8-7.2,16-16,16ZM147.3,364.7h217.3v-217.3h-217.3v217.3Z"/>
      <path fill="#fbbc04" d="M147.3,364.7h-32v-233.3c0-8.8,7.2-16,16-16h146.1v32h-130.1v217.3h0Z"/>
      <path fill="#4285f4" d="M443,364.7h-62.3c-8.8,0-16-7.2-16-16s7.2-16,16-16h62.3c8.8,0,16,7.2,16,16s-7.2,16-16,16Z"/>
      <path fill="#ea4335" d="M443,272h-62.3c-8.8,0-16-7.2-16-16s7.2-16,16-16h62.3c8.8,0,16,7.2,16,16s-7.2,16-16,16Z"/>
      <path fill="#ea4335" d="M443,178.5h-62.3c-8.8,0-16-7.2-16-16s7.2-16,16-16h62.3c8.8,0,16,7.2,16,16s-7.2,16-16,16Z"/>
      <path fill="#ea4335" d="M349.5,147.3c-8.8,0-16-7.2-16-16v-62.3c0-8.8,7.2-16,16-16s16,7.2,16,16v62.3c0,8.8-7.2,16-16,16Z"/>
      <path fill="#ea4335" d="M256,147.3c-8.8,0-16-7.2-16-16v-62.3c0-8.8,7.2-16,16-16s16,7.2,16,16v62.3c0,8.8-7.2,16-16,16Z"/>
      <path fill="#fbbc04" d="M162.5,147.3c-8.8,0-16-7.2-16-16v-62.3c0-8.8,7.2-16,16-16s16,7.2,16,16v62.3c0,8.8-7.2,16-16,16Z"/>
      <path fill="#34a853" d="M315,331h-118c-8.8,0-16-7.2-16-16v-118c0-8.8,7.2-16,16-16h118c8.8,0,16,7.2,16,16v118c0,8.8-7.2,16-16,16ZM213,299h86v-86h-86v86Z"/>
      <path fill="#ea4335" d="M396.7,332.7h-32v-185.3h-124.6v-32h140.6c8.8,0,16,7.2,16,16v201.3Z"/>
      <path fill="#4285f4" d="M162.5,459c-8.8,0-16-7.2-16-16v-62.3c0-8.8,7.2-16,16-16s16,7.2,16,16v62.3c0,8.8-7.2,16-16,16Z"/>
      <path fill="#4285f4" d="M256,459c-8.8,0-16-7.2-16-16v-62.3c0-8.8,7.2-16,16-16s16,7.2,16,16v62.3c0,8.8-7.2,16-16,16Z"/>
      <path fill="#4285f4" d="M349.5,459c-8.8,0-16-7.2-16-16v-62.3c0-8.8,7.2-16,16-16s16,7.2,16,16v62.3c0,8.8-7.2,16-16,16Z"/>
      <path fill="#fbbc04" d="M131.3,178.5h-62.3c-8.8,0-16-7.2-16-16s7.2-16,16-16h62.3c8.8,0,16,7.2,16,16s-7.2,16-16,16Z"/>
      <path fill="#fbbc04" d="M131.3,272h-62.3c-8.8,0-16-7.2-16-16s7.2-16,16-16h62.3c8.8,0,16,7.2,16,16s-7.2,16-16,16Z"/>
      <path fill="#fbbc04" d="M131.3,364.7h-62.3c-8.8,0-16-7.2-16-16s7.2-16,16-16h62.3c8.8,0,16,7.2,16,16s-7.2,16-16,16Z"/>
    </symbol>
    <symbol id="logo-confluent" viewBox="0 0 212 41">
      <g fill="#173361" fill-rule="evenodd">
        <path d="M62.065 22.19H64c-.755 3.472-3.705 5.81-7.646 5.81C51.728 28 48 24.55 48 19.989 48 15.427 51.728 12 56.354 12c3.94 0 6.89 2.315 7.646 5.787h-1.935c-.661-2.519-2.785-4.107-5.71-4.107-3.635 0-6.467 2.7-6.467 6.309s2.832 6.332 6.466 6.332c2.926 0 5.05-1.635 5.71-4.131M84 20c0 4.455-3.57 8-8 8s-8-3.545-8-8 3.57-8 8-8 8 3.545 8 8m-1.808 0c0-3.5-2.711-6.318-6.192-6.318-3.48 0-6.192 2.818-6.192 6.318S72.52 26.318 76 26.318 82.192 23.5 82.192 20M103 12v16h-1.48l-9.75-12.612V28H90V12h1.435l9.794 12.777V12zm8.86 1.718V19.6h8.15v1.717h-8.15V28H110V12h11v1.718zM138 26.282V28h-11V12h1.914v14.282zm17-5.288c0 4.185-2.79 7.006-7 7.006s-7-2.82-7-7.006V12h1.9v8.994c0 3.075 2.02 5.295 5.1 5.295 3.055 0 5.1-2.22 5.1-5.295V12h1.9zm8.826-7.276V19.2h8.25v1.718h-8.25v5.365H173V28h-11V12h11v1.718zM191 12v16h-1.48l-9.75-12.612V28H178V12h1.435l9.794 12.777V12zm19 1.718h-5.626V28h-1.77V13.718H197V12h13zM26.375 20.975c.875-.047 1.75-.075 2.625-.139v-.672c-.875-.064-1.75-.092-2.625-.14l-2.625-.081c-1.54-.047-3.08-.06-4.622-.07a188 188 0 0 0-.051-4.623l-.074-2.625c-.045-.875-.07-1.75-.132-2.625h-.742c-.062.875-.087 1.75-.132 2.625l-.073 2.625c-.02.723-.029 1.447-.036 2.17-.285-.665-.57-1.33-.865-1.991l-1.072-2.397c-.377-.79-.735-1.59-1.127-2.375l-.684.285c.277.831.589 1.65.882 2.475l.937 2.454c.258.675.526 1.346.796 2.018a130 130 0 0 0-1.56-1.509l-1.908-1.804c-.65-.587-1.287-1.188-1.95-1.763l-.523.524c.574.663 1.175 1.3 1.762 1.95l1.804 1.908q.749.786 1.509 1.56c-.672-.27-1.343-.538-2.019-.796l-2.453-.937c-.825-.293-1.644-.605-2.476-.883l-.284.685c.785.392 1.584.75 2.375 1.127l2.397 1.072c.66.295 1.325.58 1.99.864-.723.008-1.446.017-2.17.036l-2.624.074c-.875.045-1.75.07-2.625.132v.742c.875.062 1.75.087 2.625.132l2.625.073c1.542.042 3.083.049 4.624.052.01 1.54.022 3.081.069 4.622l.082 2.625c.047.875.075 1.75.139 2.625h.672c.064-.875.092-1.75.14-2.625l.081-2.625c.023-.741.035-1.482.046-2.223q.436 1.022.892 2.037l1.08 2.393c.378.79.738 1.588 1.133 2.373l.62-.259c-.275-.832-.583-1.651-.875-2.478l-.93-2.455q-.395-1.04-.808-2.072.794.777 1.604 1.54l1.913 1.799c.652.585 1.29 1.184 1.955 1.758l.476-.476c-.574-.664-1.173-1.303-1.758-1.955l-1.799-1.914a132 132 0 0 0-1.539-1.603q1.031.413 2.07.809l2.457.929c.826.292 1.645.6 2.478.876l.258-.622c-.785-.393-1.582-.755-2.373-1.133l-2.393-1.08c-.676-.304-1.356-.598-2.036-.892.74-.01 1.481-.022 2.222-.045z"/>
        <path d="M19 37C9.626 37 2 29.374 2 20S9.626 3 19 3s17 7.626 17 17-7.626 17-17 17m0-32.41C10.503 4.59 3.59 11.502 3.59 20S10.503 35.41 19 35.41 34.41 28.497 34.41 20 27.497 4.59 19 4.59"/>
      </g>
    </symbol>
    <symbol id="logo-kafka" viewBox="0 -139 512 512">
      <g fill="currentColor">
        <path d="M49.7634813,20.9795905 C47.1809053,18.3869851 43.5978945,16.7897998 39.6036775,16.7897998 C35.6194899,16.7897998 32.06406,18.3869851 29.5140796,20.9795905 L29.4488884,20.9795905 C26.8738345,23.5546445 25.2766491,27.1476847 25.2766491,31.1168282 C25.2766491,35.1085378 26.8738345,38.6790118 29.4488884,41.2289922 L29.5140796,41.2991982 C32.06406,43.8692374 35.6194899,45.4438565 39.6036775,45.4438565 C43.5978945,45.4438565 47.1809053,43.8692374 49.7634813,41.2991982 L49.7935695,41.2289922 C52.3786529,38.6790118 53.9557794,35.1085378 53.9557794,31.1168282 C53.9557794,27.1476847 52.3786529,23.5546445 49.7935695,20.9795905 L49.7634813,20.9795905 Z M39.6036775,217.104925 C43.5978945,217.104925 47.1809053,215.477651 49.7634813,212.932685 L49.7935695,212.857465 C52.3786529,210.317514 53.9557794,206.724474 53.9557794,202.775389 C53.9557794,198.783679 52.3786529,195.208191 49.7935695,192.6206 L49.7634813,192.6206 C47.1809053,190.002921 43.5978945,188.42078 39.6036775,188.42078 C35.6194899,188.42078 32.06406,190.002921 29.5140796,192.6206 L29.4488884,192.6206 C26.8738345,195.208191 25.2766491,198.783679 25.2766491,202.775389 C25.2766491,206.724474 26.8738345,210.317514 29.4488884,212.857465 L29.5140796,212.932685 C32.06406,215.477651 35.6194899,217.104925 39.6036775,217.104925 Z M117.665171,173.695082 C121.213079,172.762346 124.425001,170.485667 126.38826,167.040561 L126.651533,166.536582 C128.396652,163.274513 128.715086,159.503451 127.78235,156.156131 C126.842092,152.58315 124.540339,149.413853 121.102755,147.440564 L120.899659,147.305167 C117.549833,145.464768 113.738653,145.063591 110.23337,146.018894 C106.670418,146.909005 103.468525,149.280963 101.517803,152.695981 C99.5420067,156.09094 99.1308004,159.992385 100.076073,163.582918 C101.051435,167.115781 103.335635,170.307645 106.753161,172.3035 L106.773219,172.3035 C110.198267,174.271774 114.069623,174.625311 117.665171,173.695082 Z M54.2992871,102.265543 C50.5382541,98.5145395 45.3480285,96.1626402 39.6036775,96.1626402 C33.8668485,96.1626402 28.6916671,98.5145395 24.9381561,102.265543 C21.197182,106.011532 18.8904151,111.179191 18.8904151,116.923542 C18.8904151,122.667893 21.197182,127.858119 24.9381561,131.646733 C28.6916671,135.37517 33.8668485,137.704503 39.6036775,137.704503 C45.3480285,137.704503 50.5382541,135.37517 54.2992871,131.646733 C58.0502907,127.858119 60.3570576,122.667893 60.3570576,116.923542 C60.3570576,111.179191 58.0502907,106.011532 54.2992871,102.265543 Z M46.0350439,77.8464095 C54.3745077,79.2204402 61.8614708,83.2146573 67.585763,88.9790672 L67.628388,88.9790672 C68.538558,89.8867298 69.4236544,90.8871646 70.2485743,91.885092 L84.5530365,83.6108194 C82.629895,77.7987697 82.5396302,71.7234478 84.0866684,66.0242291 C86.1251483,58.3943468 91.0721604,51.5643109 98.4889175,47.2842553 L98.7296236,47.1313067 C106.066145,42.9816336 114.403102,42.116596 121.927675,44.1550759 C129.550035,46.1985705 136.425204,51.1681488 140.705259,58.572369 L140.705259,58.5949352 C144.965256,65.9590379 145.827786,74.4088253 143.796828,82.0161414 C141.768378,89.6435163 136.803814,96.521192 129.394579,100.776174 L127.441349,101.929557 L127.243268,101.929557 C120.390666,105.191627 112.856064,105.703127 105.935763,103.88028 C100.254096,102.375867 95.0438112,99.2015549 90.9618367,94.700852 L76.6774334,102.952558 C78.3197512,107.295298 79.2274138,111.97653 79.2274138,116.923542 C79.2274138,121.845481 78.3197512,126.594412 76.6774334,130.959717 L90.9618367,139.188858 C95.0438112,134.617949 100.254096,131.51635 105.935763,130.006922 C113.56063,127.92331 122.010418,128.808407 129.394579,133.113536 L129.868469,133.334183 L129.868469,133.356749 C137.001895,137.681937 141.790944,144.356517 143.796828,151.896135 C145.827786,159.458318 144.965256,167.91312 140.705259,175.292267 L140.447002,175.806275 L140.416913,175.76365 C136.139365,182.877017 129.394579,187.696154 121.950241,189.734634 C114.315344,191.74804 105.863049,190.888017 98.4889175,186.645572 L98.4889175,186.587903 C91.0721604,182.300325 86.1251483,175.455245 84.0866684,167.840407 C82.5396302,162.166262 82.629895,156.09094 84.5530365,150.281398 L70.2485743,142.027184 C69.4236544,143.025111 68.538558,143.980414 67.628388,144.888076 L67.585763,144.933209 C61.8614708,150.67756 54.3745077,154.66927 46.0350439,155.998168 L46.0350439,172.526654 C51.977476,173.767795 57.2980841,176.739011 61.4653086,180.908743 L61.4878748,180.951368 C67.0742625,186.512682 70.5344129,194.26041 70.5344129,202.775389 C70.5344129,211.265294 67.0742625,218.96789 61.4878748,224.556785 L61.4653086,224.644542 C55.8388033,230.23093 48.1211635,233.69108 39.6036775,233.69108 C31.1313238,233.69108 23.3936253,230.23093 17.7796567,224.644542 L17.7570905,224.644542 L17.7570905,224.556785 C12.1656881,218.96789 8.69801565,211.265294 8.69801565,202.775389 C8.69801565,194.26041 12.1656881,186.512682 17.7570905,180.951368 L17.7570905,180.908743 L17.7796567,180.908743 C21.9443739,176.739011 27.2750113,173.767795 33.1948772,172.526654 L33.1948772,155.998168 C24.8579208,154.66927 17.3834945,150.67756 11.6692317,144.933209 L11.6090552,144.888076 C4.47312191,137.72707 0.00501471066,127.858119 0.00501471066,116.923542 C0.00501471066,106.011532 4.47312191,96.1425813 11.6090552,88.9790672 L11.6692317,88.9790672 C17.3834945,83.2146573 24.8579208,79.2204402 33.1948772,77.8464095 L33.1948772,61.3881291 C27.2750113,60.1043632 21.9443739,57.1331471 17.7796567,52.9859814 L17.7570905,52.9859814 L17.7570905,52.940849 C12.1656881,47.3293877 8.69801565,39.6343142 8.69801565,31.1168282 C8.69801565,22.6444745 12.1656881,14.8817024 17.7570905,9.29280735 L17.7796567,9.27024115 C23.3936253,3.66128727 31.1313238,0.203644266 39.6036775,0.203644266 C48.1211635,0.203644266 55.8388033,3.66128727 61.4653086,9.27024115 L61.4653086,9.29280735 L61.4878748,9.29280735 C67.0742625,14.8817024 70.5344129,22.6444745 70.5344129,31.1168282 C70.5344129,39.6343142 67.0742625,47.3293877 61.4878748,52.940849 L61.4653086,52.9859814 C57.2980841,57.1331471 51.977476,60.1043632 46.0350439,61.3881291 L46.0350439,77.8464095 Z M126.38826,66.8692078 L126.2654,66.6886783 C124.294619,63.3639251 121.14538,61.147423 117.665171,60.1921206 C114.069623,59.2368182 110.198267,59.6379951 106.753161,61.6137911 L106.773219,61.6137911 C103.335635,63.5645135 101.03639,66.7538695 100.076073,70.3293582 C99.1308004,73.877266 99.5420067,77.7987697 101.517803,81.2162951 L101.585501,81.3040525 C103.563805,84.6764454 106.71555,86.9380799 110.23337,87.8482499 C113.768741,88.8486847 117.707796,88.4249416 121.102755,86.4491456 L121.285792,86.3613882 C124.628097,84.3655334 126.854628,81.2162951 127.78235,77.7561447 C128.73013,74.1856707 128.351519,70.2842258 126.38826,66.8692078 Z"/>
      </g>
    </symbol>
    <symbol id="logo-cloud-run" viewBox="0 0 512 512">
      <path fill="#fbbc04" d="M144.4,272c-6.4,0-12.4-3.8-14.9-10.1L55.4,75.9c-3.3-8.2.7-17.5,8.9-20.8,8.2-3.3,17.5.7,20.8,8.9l74.2,186c3.3,8.2-.7,17.5-8.9,20.8-1.9.8-3.9,1.1-5.9,1.1h-.1Z"/>
      <path fill="#ea4335" d="M256,272c-6.4,0-12.4-3.8-14.9-10.1l-74.1-186c-2.6-6.6-.6-14.1,5-18.5s13.4-4.5,19.2-.4l260.1,186c7.2,5.1,8.9,15.1,3.7,22.3s-15.1,8.9-22.3,3.7L216.9,114.7l54,135.3c3.3,8.2-.7,17.5-8.9,20.8-1.9.8-4,1.1-5.9,1.1h-.1Z"/>
      <path fill="#34a853" d="M127.2,256l-72,180c-3.3,8.2.7,17.5,8.9,20.8,3.1,1.2,4,1.1,5.9,1.1,6.3,0,12.4-3.8,14.9-10.1l74.4-186c.8-2,1.1-4,1.1-5.9h-33.2Z"/>
      <path fill="#4285f4" d="M414.5,256l-197.7,141.2,54.1-135.3c.8-2,1.1-4,1.1-5.9h-33.2l-72,180c-2.6,6.6-.6,14.1,5,18.5,2.9,2.3,6.4,3.4,9.9,3.4s6.5-1,9.3-3l260.4-186c4.4-3.1,6.7-8,6.7-13h-43.6Z"/>
    </symbol>
    <symbol id="logo-vertex" viewBox="0 0 512 512">
      <path d="M128,244.99c-8.84,0-16-7.16-16-16v-95.97c0-8.84,7.16-16,16-16s16,7.16,16,16v95.97c0,8.84-7.16,16-16,16Z" fill="#ea4335"/>
      <path d="M256,458c-2.98,0-5.97-.83-8.59-2.5l-186-122c-7.46-4.74-9.65-14.63-4.91-22.09,4.75-7.46,14.64-9.65,22.09-4.91l177.41,116.53,177.41-116.53c7.45-4.74,17.34-2.55,22.09,4.91,4.74,7.46,2.55,17.34-4.91,22.09l-186,122c-2.62,1.67-5.61,2.5-8.59,2.5Z" fill="#fbbc04"/>
      <path d="M256,388.03c-8.84,0-16-7.16-16-16v-73.06c0-8.84,7.16-16,16-16s16,7.16,16,16v73.06c0,8.84-7.16,16-16,16Z" fill="#34a853"/>
      <circle cx="128" cy="70" r="16" fill="#ea4335"/>
      <circle cx="128" cy="292" r="16" fill="#ea4335"/>
      <path d="M384.23,308.01c-8.82,0-15.98-7.14-16-15.97l-.23-94.01c-.02-8.84,7.13-16.02,15.97-16.03h.04c8.82,0,15.98,7.14,16,15.97l.23,94.01c.02,8.84-7.13,16.02-15.97,16.03h-.04Z" fill="#4285f4"/>
      <circle cx="384" cy="70" r="16" fill="#4285f4"/>
      <circle cx="384" cy="134" r="16" fill="#4285f4"/>
      <path d="M320,220.36c-8.84,0-16-7.16-16-16v-103.02c0-8.84,7.16-16,16-16s16,7.16,16,16v103.02c0,8.84-7.16,16-16,16Z" fill="#fbbc04"/>
      <circle cx="256" cy="171" r="16" fill="#34a853"/>
      <circle cx="256" cy="235" r="16" fill="#34a853"/>
      <circle cx="320" cy="265" r="16" fill="#fbbc04"/>
      <circle cx="320" cy="329" r="16" fill="#fbbc04"/>
      <path d="M192,217.36c-8.84,0-16-7.16-16-16v-100.02c0-8.84,7.16-16,16-16s16,7.16,16,16v100.02c0,8.84-7.16,16-16,16Z" fill="#fbbc04"/>
      <circle cx="192" cy="265" r="16" fill="#fbbc04"/>
      <circle cx="192" cy="329" r="16" fill="#fbbc04"/>
    </symbol>
    <symbol id="logo-physionet" viewBox="0 0 716.8 173.2">
      <g transform="matrix(1.333 0 0 -1.333 0 173.2)">
        <g transform="scale(.1)">
          <g fill="#231f20">
            <path d="m210.6 612.2c13.58 0 26.66 0.996 39.25 3.02 12.58 2 23.65 5.906 33.21 11.7 9.551 5.781 17.24 13.96 23.03 24.53 5.769 10.57 8.679 24.4 8.679 41.51s-2.91 30.96-8.679 41.52c-5.789 10.57-13.48 18.74-23.03 24.53-9.558 5.781-20.63 9.679-33.21 11.7-12.59 2.004-25.67 3.019-39.25 3.019h-92.09v-161.5zm32.45 253.6c33.71 0 62.39-4.902 86.05-14.72 23.66-9.812 42.9-22.77 57.75-38.88 14.84-16.11 25.66-34.47 32.46-55.1 6.797-20.64 10.19-42.03 10.19-64.17 0-21.64-3.391-42.9-10.19-63.78-6.796-20.89-17.62-39.39-32.46-55.48-14.84-16.11-34.09-29.06-57.75-38.88-23.66-9.816-52.34-14.72-86.05-14.72h-124.5v-193.2h-118.5v539h243.1"/>
            <path d="m599.3 865.8v-203h2.266c13.59 22.64 30.95 39.12 52.09 49.44 21.13 10.3 41.76 15.47 61.9 15.47 28.68 0 52.2-3.906 70.57-11.7 18.36-7.812 32.83-18.62 43.4-32.46 10.57-13.85 17.99-30.69 22.27-50.57 4.269-19.88 6.418-41.89 6.418-66.05v-240h-107.2v220.4c0 32.21-5.04 56.24-15.09 72.09-10.08 15.85-27.93 23.78-53.6 23.78-29.19 0-50.33-8.683-63.41-26.05-13.1-17.36-19.63-45.93-19.63-85.67v-204.6h-107.2v539h107.2"/>
            <path d="m1084 210.6c-20.64-13.59-49.33-20.38-86.05-20.38-11.08 0-22.02 0.379-32.84 1.129-10.83 0.762-21.77 1.641-32.83 2.652v88.32c10.05-1.012 20.38-2.012 30.94-3.031 10.57-1 21.13-1.25 31.7-0.75 14.09 1.511 24.53 7.05 31.33 16.61 6.8 9.562 10.2 20.13 10.2 31.7 0 8.555-1.52 16.61-4.53 24.15l-136.6 366.1h114l88.32-267.2h1.5l85.31 267.2h111l-163-438.6c-11.59-31.7-27.68-54.35-48.31-67.94"/>
            <path d="m1422 423.8c4.77-8.312 10.95-15.1 18.49-20.38 7.55-5.293 16.24-9.187 26.05-11.71 9.8-2.519 20-3.769 30.57-3.769 7.54 0 15.47 0.867 23.78 2.636 8.3 1.758 15.84 4.532 22.64 8.309 6.79 3.77 12.45 8.801 16.98 15.1 4.54 6.281 6.8 14.21 6.8 23.77 0 16.11-10.7 28.18-32.09 36.24-21.39 8.036-51.21 16.09-89.44 24.15-15.61 3.515-30.83 7.668-45.68 12.46-14.84 4.777-28.05 11.05-39.62 18.87-11.59 7.793-20.88 17.61-27.92 29.43-7.07 11.83-10.58 26.3-10.58 43.41 0 25.16 4.91 45.78 14.73 61.89 9.8 16.1 22.76 28.81 38.86 38.12 16.11 9.305 34.22 15.85 54.36 19.62 20.12 3.782 40.76 5.664 61.89 5.664 21.14 0 41.63-2.011 61.53-6.035 19.87-4.031 37.6-10.83 53.21-20.38 15.59-9.57 28.55-22.28 38.88-38.12 10.3-15.85 16.47-35.85 18.48-60.01h-101.9c-1.51 20.64-9.32 34.6-23.4 41.89-14.09 7.297-30.69 10.95-49.81 10.95-6.05 0-12.59-0.382-19.63-1.132-7.05-0.754-13.47-2.395-19.25-4.903-5.79-2.531-10.7-6.172-14.72-10.95-4.03-4.793-6.04-11.21-6.04-19.25 0-9.57 3.51-17.36 10.57-23.4 7.04-6.047 16.22-10.95 27.55-14.73 11.32-3.77 24.27-7.168 38.88-10.19 14.59-3.015 29.43-6.296 44.53-9.812 15.6-3.527 30.82-7.813 45.66-12.83 14.85-5.039 28.05-11.7 39.63-20 11.58-8.313 20.88-18.62 27.93-30.95 7.04-12.34 10.58-27.56 10.58-45.67 0-25.66-5.17-47.18-15.48-64.54-10.32-17.35-23.78-31.32-40.38-41.9-16.61-10.57-35.62-18-56.99-22.26-21.4-4.266-43.16-6.414-65.3-6.414-22.64 0-44.79 2.265-66.42 6.797-21.65 4.531-40.9 12.08-57.75 22.64-16.87 10.57-30.7 24.53-41.52 41.9-10.82 17.36-16.74 39.12-17.73 65.29h101.9c0-11.58 2.38-21.51 7.17-29.81"/>
            <path d="m1847 717.1v-390.3h-107.2v390.3zm-107.2 60.39v88.31h107.2v-88.31h-107.2"/>
            <path d="m2031 475.9c3.02-14.85 8.17-28.19 15.47-40.01 7.29-11.83 16.98-21.26 29.06-28.3 12.08-7.063 27.18-10.57 45.29-10.57 18.12 0 33.33 3.504 45.67 10.57 12.32 7.039 22.14 16.47 29.44 28.3 7.29 11.82 12.45 25.16 15.47 40.01 3.03 14.84 4.53 30.06 4.53 45.66 0 15.6-1.5 30.95-4.53 46.05-3.02 15.1-8.18 28.43-15.47 40.01-7.3 11.57-17.12 21.01-29.44 28.31-12.34 7.286-27.55 10.94-45.67 10.94-18.11 0-33.21-3.652-45.29-10.94-12.08-7.304-21.77-16.74-29.06-28.31-7.3-11.58-12.45-24.91-15.47-40.01s-4.53-30.45-4.53-46.05c0-15.6 1.51-30.83 4.53-45.66zm-97.37 130.6c9.55 25.41 23.13 47.05 40.76 64.92 17.61 17.85 38.74 31.7 63.4 41.52 24.66 9.812 52.33 14.71 83.03 14.71s58.5-4.902 83.41-14.71c24.91-9.817 46.16-23.66 63.79-41.52 17.61-17.87 31.19-39.51 40.76-64.92 9.55-25.42 14.34-53.72 14.34-84.92 0-31.2-4.79-59.38-14.34-84.54-9.57-25.17-23.15-46.68-40.76-64.54-17.63-17.86-38.88-31.58-63.79-41.13-24.91-9.558-52.71-14.34-83.41-14.34s-58.37 4.785-83.03 14.34c-24.66 9.551-45.79 23.27-63.4 41.13-17.63 17.86-31.21 39.38-40.76 64.54-9.57 25.16-14.35 53.34-14.35 84.54 0 31.2 4.78 59.5 14.35 84.92"/>
            <path d="m2522 865.8 225-361.6h1.51v361.6h111v-539h-118.5l-224.2 360.8h-1.51v-360.8h-111v539h117.8"/>
            <path d="m3188 625.7c-12.83 14.08-32.34 21.13-58.5 21.13-17.12 0-31.33-2.902-42.65-8.672-11.32-5.793-20.38-12.97-27.17-21.52-6.8-8.562-11.59-17.62-14.35-27.18-2.77-9.571-4.4-18.12-4.9-25.66h174.4c-5.03 27.18-13.96 47.8-26.79 61.89zm-121.2-205.3c16.11-15.61 39.26-23.4 69.45-23.4 21.63 0 40.25 5.399 55.86 16.22 15.59 10.82 25.15 22.28 28.69 34.35h94.35c-15.09-46.8-38.25-80.27-69.45-100.4-31.2-20.14-68.94-30.2-113.2-30.2-30.7 0-58.38 4.91-83.04 14.71-24.66 9.817-45.55 23.78-62.64 41.9-17.12 18.12-30.33 39.75-39.63 64.92-9.32 25.16-13.97 52.83-13.97 83.03 0 29.18 4.78 56.36 14.34 81.52 9.56 25.16 23.14 46.92 40.76 65.29 17.62 18.37 38.62 32.84 63.04 43.41 24.39 10.57 51.44 15.85 81.14 15.85 33.21 0 62.15-6.414 86.81-19.25 24.64-12.83 44.91-30.08 60.76-51.71 15.85-21.64 27.29-46.3 34.34-73.97 7.04-27.68 9.55-56.61 7.55-86.81h-281.6c1.5-34.72 10.3-59.89 26.41-75.48"/>
            <path d="m3600 717.1v-71.71h-78.51v-193.2c0-18.12 3.03-30.2 9.06-36.23 6.04-6.035 18.12-9.062 36.23-9.062 6.05 0 11.82 0.254 17.37 0.762 5.52 0.488 10.82 1.25 15.85 2.265v-83.04c-9.06-1.512-19.14-2.508-30.2-3.015-11.07-0.5-21.88-0.754-32.45-0.754-16.61 0-32.35 1.125-47.18 3.39-14.85 2.266-27.93 6.668-39.26 13.21-11.32 6.535-20.26 15.85-26.79 27.93-6.55 12.08-9.82 27.93-9.82 47.56v230.2h-64.91v71.71h64.91v117h107.2v-117h78.51"/>
            <path d="m4871 1058c0-33.57-27.37-60.79-61.14-60.79s-61.15 27.22-61.15 60.79c0 33.58 27.38 60.79 61.15 60.79s61.14-27.21 61.14-60.79"/>
            <path d="m4370 60.79c0-30.52-24.89-55.27-55.59-55.27s-55.58 24.75-55.58 55.27c0 30.52 24.88 55.26 55.58 55.26s55.59-24.74 55.59-55.26"/>
            <path d="m4314 314.5c0-30.52-24.88-55.26-55.58-55.26s-55.59 24.74-55.59 55.26c0 30.52 24.89 55.26 55.59 55.26s55.58-24.74 55.58-55.26"/>
            <path d="m4041 314.5c0-27.47-22.4-49.73-50.03-49.73s-50.03 22.26-50.03 49.73c0 27.46 22.4 49.74 50.03 49.74s50.03-22.27 50.03-49.74"/>
            <path d="m5376 565c0-27.47-22.4-49.73-50.03-49.73s-50.03 22.26-50.03 49.73 22.4 49.74 50.03 49.74 50.03-22.27 50.03-49.74"/>
            <path d="m3969 565c0-27.47-22.4-49.73-50.03-49.73s-50.03 22.26-50.03 49.73 22.4 49.74 50.03 49.74 50.03-22.27 50.03-49.74"/>
            <path d="m5092 1037c0-27.46-22.4-49.73-50.03-49.73s-50.02 22.27-50.02 49.73c0 27.47 22.39 49.74 50.02 49.74s50.03-22.27 50.03-49.74"/>
            <path d="m4242 565c0-30.52-24.89-55.26-55.59-55.26s-55.59 24.74-55.59 55.26c0 30.52 24.89 55.26 55.59 55.26s55.59-24.74 55.59-55.26"/>
            <path d="m5250 832.7c0-30.52-24.89-55.26-55.59-55.26s-55.58 24.74-55.58 55.26c0 30.52 24.88 55.26 55.58 55.26s55.59-24.74 55.59-55.26"/>
            <path d="m4096 832.7c0-30.52-24.89-55.26-55.59-55.26s-55.59 24.74-55.59 55.26c0 30.52 24.89 55.26 55.59 55.26s55.59-24.74 55.59-55.26"/>
            <path d="m4694 60.79c0-33.58-27.37-60.79-61.14-60.79s-61.15 27.21-61.15 60.79c0 33.57 27.38 60.78 61.15 60.78s61.14-27.21 61.14-60.78"/>
            <path d="m4648 314.5c0-33.57-27.38-60.79-61.15-60.79s-61.14 27.22-61.14 60.79c0 33.57 27.37 60.79 61.14 60.79s61.15-27.22 61.15-60.79"/>
            <path d="m4559 565c0-33.57-27.38-60.79-61.15-60.79s-61.15 27.22-61.15 60.79c0 33.57 27.38 60.79 61.15 60.79s61.15-27.22 61.15-60.79"/>
            <path d="m4405 832.7c0-33.57-27.37-60.79-61.14-60.79s-61.15 27.22-61.15 60.79 27.38 60.78 61.15 60.78 61.14-27.22 61.14-60.78"/>
            <path d="m4274 1058c0-33.57-27.38-60.79-61.15-60.79s-61.14 27.22-61.14 60.79c0 33.58 27.37 60.79 61.14 60.79s61.15-27.21 61.15-60.79"/>
            <path d="m5158 565c0-33.57-27.38-60.79-61.15-60.79s-61.14 27.22-61.14 60.79c0 33.57 27.37 60.79 61.14 60.79s61.15-27.22 61.15-60.79"/>
            <path d="m5178 60.79c0-33.58-27.38-60.79-61.15-60.79s-61.14 27.21-61.14 60.79c0 33.57 27.37 60.78 61.14 60.78s61.15-27.21 61.15-60.78"/>
            <path d="m5255 314.5c0-33.57-27.38-60.79-61.15-60.79s-61.14 27.22-61.14 60.79c0 33.57 27.37 60.79 61.14 60.79s61.15-27.22 61.15-60.79"/>
            <path d="m5025 838.2c0-33.57-27.37-60.79-61.14-60.79s-61.15 27.22-61.15 60.79c0 33.57 27.38 60.79 61.15 60.79s61.14-27.22 61.14-60.79"/>
          </g>
          <g fill="none" stroke="#231f20" stroke-miterlimit="10" stroke-width="22.22">
            <path d="m5097 565 97.14-250.5"/>
            <path d="m4964 838.2 133.4-273.2"/>
            <path d="m4810 1058 153.9-219.9"/>
            <path d="m4213 1058 135-234.8"/>
            <path d="m4348 823.3 150-258.2"/>
            <path d="m4498 565 88.51-250.5"/>
            <path d="m4586 314.5 46.26-254.9"/>
            <path d="m4879 401.5s-6.28-335 148-340.8c21.25-0.8008 89.75 0 89.75 0"/>
            <path d="m4833 653.7s18.64-269.7 146.5-321.3c85.62-34.56 214.7-17.95 214.7-17.95"/>
            <path d="m4757 874.5s-5.7-281.1 135.2-302.9c84.71-13.11 185.8-6.528 185.8-6.528"/>
            <path d="m4615 1106s-11.59-237.5 111.8-263.8c83.84-17.87 222.4-9.617 222.4-9.617"/>
            <path d="m4416 1230s-4.47-150.6 140.4-168.8c85.28-10.74 231.4-2.98 231.4-2.98"/>
            <path d="m4314 60.79 318.6-1.199"/>
            <path d="m4833 653.7s30.54-264.5-95.99-321.4c-52.25-23.46-150.5-17.86-150.5-17.86"/>
            <path d="m4757 874.5s13.11-198.6-76.9-280.4c-42.21-38.33-182.1-29.07-182.1-29.07"/>
            <path d="m4615 1106s9.58-159.1-79.74-244.5c-36.65-35.04-191.3-28.85-191.3-28.85"/>
            <path d="m4879 401.5s23.66-219.4-65.86-297.2c-55.91-48.62-180.7-44.74-180.7-44.74"/>
            <path d="m4259 314.5h327.9"/>
            <path d="m4187 565h311.3"/>
            <path d="m5078 565h259.6"/>
            <path d="m4964 838.2 230.6-5.527"/>
            <path d="m4788 1058 253.7-21.15"/>
            <path d="m4041 832.7 303.1-0.019"/>
            <path d="m4416 1230s9.04-105.5-46.27-145.8c-46.26-33.77-156.8-25.98-156.8-25.98"/>
            <path d="m3919 565h267.3"/>
            <path d="m4013 314.5h245.7"/>
            <path d="m4259 314.5 55.58-253.7"/>
            <path d="m4187 565 71.91-250.5"/>
            <path d="m4041 832.7 146-267.6"/>
            <path d="m5042 1037 152.7-204.3"/>
            <path d="m5194 832.7 131.9-279.1"/>
            <path d="m3919 565 71.3-250.5"/>
          </g>
          <g fill="#da1259">
            <path d="m4485 1230c0-38.15-31.11-69.07-69.48-69.07-38.38 0-69.49 30.92-69.49 69.07s31.11 69.08 69.49 69.08c38.37 0 69.48-30.93 69.48-69.08"/>
            <path d="m4949 401.5c0-38.15-31.11-69.08-69.48-69.08-38.38 0-69.48 30.93-69.48 69.08 0 38.15 31.1 69.07 69.48 69.07 38.37 0 69.48-30.93 69.48-69.07"/>
            <path d="m4902 653.7c0-38.15-31.11-69.08-69.49-69.08-38.37 0-69.48 30.93-69.48 69.08 0 38.15 31.11 69.08 69.48 69.08 38.38 0 69.49-30.93 69.49-69.08"/>
            <path d="m4826 874.5c0-38.15-31.11-69.07-69.48-69.07-38.38 0-69.49 30.93-69.49 69.07 0 38.15 31.11 69.08 69.49 69.08 38.37 0 69.48-30.93 69.48-69.08"/>
            <path d="m4684 1106c0-38.15-31.11-69.08-69.48-69.08-38.38 0-69.49 30.93-69.49 69.08s31.11 69.08 69.49 69.08c38.37 0 69.48-30.93 69.48-69.08"/>
          </g>
        </g>
      </g>
    </symbol>
    <symbol id="icon-react" viewBox="0 0 24 24">
      <circle cx="12" cy="12" r="2" fill="currentColor"/>
      <ellipse cx="12" cy="12" rx="10" ry="4" fill="none" stroke-width="1.5" transform="rotate(0 12 12)" style="stroke: rgb(31, 57, 138);"/>
      <ellipse cx="12" cy="12" rx="10" ry="4" fill="none" stroke-width="1.5" transform="rotate(60 12 12)" style="stroke: rgb(31, 57, 138);"/>
      <ellipse cx="12" cy="12" rx="10" ry="4" fill="none" stroke-width="1.5" transform="rotate(120 12 12)" style="stroke: rgb(31, 57, 138);"/>
    </symbol>
    <symbol id="icon-database" viewBox="0 0 24 24">
      <path d="M12 2C6.48 2 2 4.02 2 6.5S6.48 11 12 11s10-2.02 10-4.5S17.52 2 12 2zm0 13c-5.52 0-10-2.02-10-4.5V10c0 2.48 4.48 4.5 10 4.5s10-2.02 10-4.5V6.5C22 10.17 17.52 15 12 15zm0 7c-5.52 0-10-2.02-10-4.5v-3c0 2.48 4.48 4.5 10 4.5s10-2.02 10-4.5v3c0 2.48-4.48 4.5-10 4.5z" fill="currentColor"/>
    </symbol>
    <bx:export>
      <bx:file format="svg"/>
      <bx:file format="png"/>
    </bx:export>
  </defs>
  <g transform="translate(50, 100)">
    <rect x="0" y="0" width="700" height="180" rx="10" fill="#f0f4f8" stroke="#cbd5e1" stroke-width="2"/>
    <text x="350" y="25" text-anchor="middle" font-family="sans-serif" font-weight="bold" fill="#475569" font-size="14" style="white-space: pre;">DATA SOURCE LAYER</text>
    <rect x="40" y="40" width="620" height="120" rx="8" fill="#ffffff" stroke="#94a3b8" stroke-width="1" stroke-dasharray="5,5"/>
    <g transform="translate(280, 50)">
      <use href="#logo-bigquery" width="22" height="22"/>
      <text x="32" y="18" text-anchor="start" font-family="sans-serif" font-weight="bold" fill="#334155" font-size="14" style="white-space: pre;">Google BigQuery</text>
    </g>
    <g transform="translate(240, 75)">
      <use href="#logo-physionet" width="120" height="30"/>
      <text style="fill: rgb(100, 116, 139); font-size: 14px; font-weight: 700; white-space: pre;" x="130" y="22">MIMIC-IV v3.1</text>
    </g>
    <g transform="translate(130, 110)">
      <rect width="160" height="40" rx="5" fill="#e0f2fe" stroke="#38bdf8" stroke-width="1.5" filter="url(#shadow)"/>
      <text x="80" y="18" text-anchor="middle" font-family="sans-serif" font-weight="bold" fill="#0369a1" font-size="12" style="white-space: pre;">chartevents</text>
      <text x="80" y="32" text-anchor="middle" font-family="sans-serif" fill="#0284c7" font-size="11" style="white-space: pre;">(ICU Vitals)</text>
    </g>
    <g transform="translate(410, 110)">
      <rect width="160" height="40" rx="5" fill="#e0f2fe" stroke="#38bdf8" stroke-width="1.5" filter="url(#shadow)"/>
      <text x="80" y="18" text-anchor="middle" font-family="sans-serif" font-weight="bold" fill="#0369a1" font-size="12" style="white-space: pre;">labevents</text>
      <text x="80" y="32" text-anchor="middle" font-family="sans-serif" fill="#0284c7" font-size="11" style="white-space: pre;">(Lab Results)</text>
    </g>
  </g>
  <g transform="translate(50, 310)">
    <rect x="0" y="0" width="700" height="130" rx="10" fill="#f0fdf4" stroke="#86efac" stroke-width="2"/>
    <g transform="translate(250, 10)">
      <use href="#logo-compute" width="22" height="22" transform="matrix(1, 0, 0, 1, -28, -5)"/>
      <text x="0" y="10" text-anchor="start" font-family="sans-serif" font-weight="bold" fill="#166534" font-size="14" style="white-space: pre;">STREAMING LAYER (GCP VM)</text>
    </g>
    <g transform="translate(130, 50)">
      <rect width="160" height="60" rx="5" fill="#dcfce7" stroke="#22c55e" stroke-width="1.5" filter="url(#shadow)"/>
      <text x="80" y="25" text-anchor="middle" font-family="sans-serif" font-weight="bold" fill="#15803d" font-size="12" style="white-space: pre;">Vitals Producer</text>
      <text x="80" y="45" text-anchor="middle" font-family="sans-serif" fill="#16a34a" font-size="11" style="white-space: pre;">(BigQuery → Kafka)</text>
    </g>
    <g transform="translate(410, 50)">
      <rect width="160" height="60" rx="5" fill="#dcfce7" stroke="#22c55e" stroke-width="1.5" filter="url(#shadow)"/>
      <text x="80" y="25" text-anchor="middle" font-family="sans-serif" font-weight="bold" fill="#15803d" font-size="12" style="white-space: pre;">Labs Producer</text>
      <text x="80" y="45" text-anchor="middle" font-family="sans-serif" fill="#16a34a" font-size="11" style="white-space: pre;">(BigQuery → Kafka)</text>
    </g>
  </g>
  <g transform="translate(50, 500)">
    <rect x="0" y="0" width="700" height="120" rx="10" fill="#faf5ff" stroke="#d8b4fe" stroke-width="2"/>
    <g transform="translate(240, 8)">
      <use href="#logo-confluent" width="140" height="28" transform="matrix(1.268636, 0, 0, 1.268636, 22.109175, -7)" style=""/>
      <use href="#logo-kafka" width="65" height="40" color="#6b21a8" transform="matrix(1.519085, 0, 0, 1.519085, 82.832184, 31.350863)" style=""/>
    </g>
    <g transform="translate(130, 45)">
      <rect width="160" height="50" rx="5" fill="#f3e8ff" stroke="#a855f7" stroke-width="1.5" filter="url(#shadow)"/>
      <text x="80" y="20" text-anchor="middle" font-family="sans-serif" font-weight="bold" fill="#7e22ce" font-size="12" style="white-space: pre;">patient-vitals</text>
      <text x="80" y="38" text-anchor="middle" font-family="sans-serif" fill="#9333ea" font-size="11" style="white-space: pre;">(Topic)</text>
    </g>
    <g transform="translate(410, 45)">
      <rect width="160" height="50" rx="5" fill="#f3e8ff" stroke="#a855f7" stroke-width="1.5" filter="url(#shadow)"/>
      <text x="80" y="20" text-anchor="middle" font-family="sans-serif" font-weight="bold" fill="#7e22ce" font-size="12" style="white-space: pre;">patient-labs</text>
      <text x="80" y="38" text-anchor="middle" font-family="sans-serif" fill="#9333ea" font-size="11" style="white-space: pre;">(Topic)</text>
    </g>
  </g>
  <g transform="translate(50, 690)">
    <rect x="0" y="0" width="700" height="240" rx="10" fill="#fff7ed" stroke="#fdba74" stroke-width="2"/>
    <g transform="translate(250, 10)">
      <use href="#logo-compute" width="22" height="22" transform="matrix(1, 0, 0, 1, -28, -5)"/>
      <text x="0" y="10" text-anchor="start" font-family="sans-serif" font-weight="bold" fill="#9a3412" font-size="14" style="white-space: pre;">PROCESSING LAYER (GCP VM)</text>
    </g>
    <rect x="30" y="45" width="640" height="100" rx="8" fill="#ffffff" stroke="#c2410c" stroke-width="1" stroke-dasharray="5,5"/>
    <text x="350" y="65" text-anchor="middle" font-family="sans-serif" font-weight="bold" fill="#9a3412" font-size="12" style="white-space: pre;">Multi-Stream Consumer Pipeline</text>
    <g transform="translate(50, 80)">
      <rect x="0" y="0" width="100" height="50" rx="4" fill="#ffedd5" stroke="#f97316" stroke-width="1"/>
      <text x="50" y="20" text-anchor="middle" font-family="sans-serif" font-size="11" font-weight="bold" fill="#c2410c" style="white-space: pre;">Stream Join</text>
      <text x="50" y="35" text-anchor="middle" font-family="sans-serif" font-size="10" fill="#ea580c" style="white-space: pre;">(by stay_id)</text>
      <line x1="100" y1="25" x2="130" y2="25" stroke="#f97316" stroke-width="1.5" marker-end="url(#arrowhead)"/>
      <rect x="135" y="0" width="110" height="50" rx="4" fill="#ffedd5" stroke="#f97316" stroke-width="1"/>
      <text x="190" y="20" text-anchor="middle" font-family="sans-serif" font-size="11" font-weight="bold" fill="#c2410c" style="white-space: pre;">MEWS Score</text>
      <text x="190" y="35" text-anchor="middle" font-family="sans-serif" font-size="10" fill="#ea580c" style="white-space: pre;">Calculation</text>
      <line x1="245" y1="25" x2="275" y2="25" stroke="#f97316" stroke-width="1.5" marker-end="url(#arrowhead)"/>
      <rect x="280" y="0" width="110" height="50" rx="4" fill="#ffedd5" stroke="#f97316" stroke-width="1"/>
      <text x="335" y="20" text-anchor="middle" font-family="sans-serif" font-size="11" font-weight="bold" fill="#c2410c" style="white-space: pre;">Sepsis</text>
      <text x="335" y="35" text-anchor="middle" font-family="sans-serif" font-size="10" fill="#ea580c" style="white-space: pre;">Screening</text>
      <line x1="390" y1="25" x2="420" y2="25" stroke="#f97316" stroke-width="1.5" marker-end="url(#arrowhead)"/>
      <rect x="425" y="0" width="120" height="50" rx="4" fill="#ffedd5" stroke="#f97316" stroke-width="1"/>
      <use href="#logo-vertex" width="30" height="30" transform="matrix(1, 0, 0, 1, 430, 10)"/>
      <text x="495" y="20" text-anchor="middle" font-family="sans-serif" font-size="11" font-weight="bold" fill="#c2410c" style="white-space: pre;">Vertex AI</text>
      <text x="495" y="35" text-anchor="middle" font-family="sans-serif" font-size="10" fill="#ea580c" style="white-space: pre;">(Gemini 2.5)</text>
    </g>
    <line x1="350" y1="145" x2="350" y2="180" stroke="#c2410c" stroke-width="1.5" marker-end="url(#arrowhead)"/>
    <g transform="translate(150, 180)">
      <rect width="400" height="40" rx="5" fill="#fff7ed" stroke="#ea580c" stroke-width="1.5" filter="url(#shadow)"/>
      <text x="200" y="25" text-anchor="middle" font-family="sans-serif" font-weight="bold" fill="#c2410c" font-size="13" style="white-space: pre;">Flask API (app.py)</text>
    </g>
  </g>
  <g transform="translate(50, 960)">
    <rect x="0" y="0" width="700" height="120" rx="10" fill="#eff6ff" stroke-width="2" stroke="#93c5fd"/>
    <g transform="translate(240, 10)">
      <use href="#logo-cloud-run" width="22" height="22" transform="matrix(1, 0, 0, 1, -50, -5)"/>
      <use href="#icon-react" width="22" height="22" fill="#1e3a8a" transform="matrix(1, 0, 0, 1, -25, -6)" stroke="#1e3a8a"/>
      <text style="white-space: pre;" x="0" y="10" text-anchor="start" font-weight="bold" font-size="14" font-family="sans-serif" fill="#1e3a8a">PRESENTATION LAYER (Cloud Run)</text>
    </g>
    <g transform="translate(50, 45)">
      <rect width="600" height="55" rx="5" fill="#dbeafe" stroke-width="1.5" filter="url(#shadow)" stroke="#3b82f6"/>
      <text style="white-space: pre;" x="300" y="22" text-anchor="middle" font-weight="bold" font-size="14" font-family="sans-serif" fill="#1d4ed8">React Dashboard</text>
      <text style="white-space: pre;" x="300" y="42" text-anchor="middle" font-size="12" font-family="sans-serif" fill="#2563eb">Real-time patient monitoring with risk visualization</text>
    </g>
  </g>
  <line x1="256.582" y1="250" x2="256.582" y2="310" stroke="#64748b" stroke-width="2" marker-end="url(#arrowhead)"/>
  <line x1="539.472" y1="250" x2="539.472" y2="310" stroke="#64748b" stroke-width="2" marker-end="url(#arrowhead)"/>
  <line x1="258.771" y1="420" x2="258.771" y2="500" stroke="#64748b" stroke-width="2" marker-end="url(#arrowhead)"/>
  <line x1="544.22" y1="420" x2="544.22" y2="500" stroke="#64748b" stroke-width="2" marker-end="url(#arrowhead)"/>
  <path d="M 260.729 595 L 260.729 655 L 540.729 655 L 540.729 595" fill="none" stroke="#64748b" stroke-width="2"/>
  <line x1="402.335" y1="655" x2="402.335" y2="690" stroke="#64748b" stroke-width="2" marker-end="url(#arrowhead)"/>
  <line x1="401.669" y1="910" x2="401.669" y2="960" stroke="#64748b" stroke-width="2" marker-end="url(#arrowhead)"/>
</svg>